<svg xmlns="http://www.w3.org/2000/svg" width="300" height="300" viewBox="0 0 300 300" fill="none">
<path d="M149.471 198.834C125.922 198.834 106.278 182.177 101.615 160.046H23.2732C28.8107 224.401 82.8455 274.894 148.655 274.894C214.464 274.894 268.557 224.401 274.037 160.046H197.327C192.664 182.235 173.02 198.834 149.471 198.834Z" fill="white"/>
<path d="M177.45 271.633C229.678 259.403 269.373 214.733 274.037 160.046H243.143C240.054 209.666 213.998 251.715 177.45 271.633Z" fill="#DFDFDF"/>
<path d="M178.325 149.971C178.266 149.971 178.266 149.971 178.325 149.971C178.266 146.418 177.625 143.04 176.459 139.896C172.379 128.947 161.828 121.201 149.471 121.201C137.114 121.201 126.563 129.005 122.483 139.896C121.317 143.04 120.676 146.418 120.676 149.971H120.734C120.734 153.524 121.375 156.901 122.541 160.046C126.621 170.995 137.172 178.741 149.529 178.741C161.887 178.741 172.437 170.937 176.518 160.046C177.683 156.96 178.325 153.524 178.325 149.971Z" fill="white"/>
<path d="M149.529 101.166C173.078 101.166 192.722 117.823 197.385 139.954H275.727C270.189 75.541 216.155 25.0475 150.287 25.0475C84.4193 25.0475 30.4428 75.541 24.9053 139.896H101.673C106.336 117.765 125.98 101.166 149.529 101.166Z" fill="#FF1C1C"/>
<path d="M243.143 139.895H275.669C270.889 84.2769 229.853 38.9666 176.284 27.7264C213.473 47.3531 239.995 89.8096 243.143 139.895Z" fill="#DF1818"/>
<path d="M150.287 25.0475C216.155 25.0475 270.189 75.541 275.669 139.895H197.327C192.664 117.765 173.02 101.108 149.471 101.108C125.922 101.108 106.278 117.765 101.615 139.895H24.9054C30.4429 75.541 84.4777 25.0475 150.287 25.0475ZM176.459 139.895C177.625 143.04 178.266 146.418 178.266 149.971H178.324C178.324 153.523 177.683 156.901 176.517 160.046C172.437 170.995 161.887 178.741 149.529 178.741C137.172 178.741 126.621 170.937 122.541 160.046C121.375 156.901 120.734 153.523 120.734 149.971H120.676C120.676 146.418 121.317 143.04 122.483 139.895C126.563 128.946 137.113 121.201 149.471 121.201C161.828 121.201 172.379 129.005 176.459 139.895ZM148.655 274.953C82.7873 274.953 28.7525 224.459 23.2732 160.105H101.615C106.278 182.236 125.922 198.892 149.471 198.892C173.02 198.892 192.664 182.236 197.327 160.105H274.095C268.557 224.401 214.523 274.953 148.655 274.953ZM149.471 1.05286C67.1656 1.05286 0.423584 67.7369 0.423584 149.971C0.423584 232.205 67.1656 298.889 149.471 298.889C231.776 298.889 298.577 232.263 298.577 149.971C298.577 67.6787 231.835 1.05286 149.471 1.05286Z" fill="black"/>
</svg>